<?xml version="1.0" encoding="UTF-8"?>
<svg width="117px" height="40px" viewBox="0 0 117 40" version="1.1" xmlns="http://www.w3.org/2000/svg" xmlns:xlink="http://www.w3.org/1999/xlink">
    <title>talenta - shades</title>
    <defs>
        <linearGradient x1="-10.5660835%" y1="30.0180436%" x2="84.3440857%" y2="82.4136838%" id="linearGradient-1">
            <stop stop-color="#BF2A34" offset="0%"></stop>
            <stop stop-color="#FF6464" offset="100%"></stop>
        </linearGradient>
        <linearGradient x1="49.9985019%" y1="-0.00856845346%" x2="49.9985019%" y2="100.002128%" id="linearGradient-2">
            <stop stop-color="#BF2A34" offset="0%"></stop>
            <stop stop-color="#FF6464" stop-opacity="0" offset="100%"></stop>
        </linearGradient>
    </defs>
    <g id="Page-1" stroke="none" stroke-width="1" fill="none" fill-rule="evenodd">
        <g id="Logo" transform="translate(-452.000000, -55.000000)">
            <g id="Talenta" transform="translate(458.000000, 61.000000)">
                <path d="M0.233854416,0.87800042 C-0.248145584,1.71280042 0.0526544161,2.67280042 0.791054416,3.32160042 L0.791054416,3.32160042 L5.12745442,7.12320042 L0.791054416,10.9244004 C0.0526544161,11.5692004 -0.248145584,12.5324004 0.233854416,13.3672004 L0.233854416,13.3672004 C0.715854416,14.2020004 1.70945442,14.4356004 2.62865442,14.1060004 L2.62865442,14.1060004 L11.9914544,10.8592004 C13.6894544,10.3204004 14.9026544,8.92560042 14.9026544,7.12320042 L14.9026544,7.12320042 C14.9026544,5.33880042 13.7026544,3.95560042 12.0442544,3.40040042 L12.0442544,3.40040042 L2.62865442,0.13960042 C2.36465442,0.0472004202 2.09345442,-5.1159077e-14 1.82985442,-5.1159077e-14 L1.82985442,-5.1159077e-14 C1.18105442,-0.00039957984 0.576654416,0.28480042 0.233854416,0.87800042" id="icon" fill="url(#linearGradient-1)"></path>
                <polygon id="shade" fill="url(#linearGradient-2)" points="2.42265442 9.49400042 9.93065442 11.5408004 5.12785442 7.12320042"></polygon>
                <path d="M26.8058544,0.0508004202 L26.8058544,5.16360042 L29.7778544,5.16360042 L29.7782544,8.51200042 L26.8058544,8.50600042 L26.8058544,15.3584004 C26.8058544,16.2108004 26.9670544,16.5732004 27.1022544,16.7276004 C27.2302544,16.8744004 27.5482544,17.0484004 28.3362544,17.0484004 C28.3814544,17.0484004 28.4742544,17.0380004 29.1122544,16.9492004 L29.1122544,16.9492004 L30.2050544,19.8204004 C30.0958544,19.9596004 29.9250544,20.0868004 29.6530544,20.1684004 C29.0450544,20.3708004 28.2574544,20.4752004 27.3206544,20.4752004 C25.6758544,20.4752004 24.4698544,20.1032004 23.7366544,19.3696004 C23.0034544,18.6360004 22.6314544,17.4124004 22.6314544,15.7320004 L22.6314544,15.7320004 L22.6314544,8.51200042 L20.7718544,8.51200042 L20.7718544,5.16360042 L22.6306544,5.16360042 L22.6306544,0.0508004202 L26.8058544,0.0508004202 Z M74.8590544,5.37780042 C76.5738544,5.37780042 77.8818544,5.87420042 78.7454544,6.85300042 C79.5990544,7.82020042 80.0322544,9.19100042 80.0322544,10.9266004 L80.0322544,10.9266004 L80.0322544,20.4754004 L75.8330544,20.4754004 L75.8342544,11.5706004 C75.8342544,10.7042004 75.6566544,10.0598004 75.3062544,9.65500042 C74.9682544,9.26380042 74.3746544,9.06540042 73.5434544,9.06540042 C72.6234544,9.06540042 71.9386544,9.31860042 71.4502544,9.83900042 C70.9630544,10.3578004 70.7166544,11.0850004 70.7166544,12.0002004 L70.7166544,12.0002004 L70.7166544,20.4754004 L66.5454544,20.4754004 L66.5454544,5.73300042 L70.5814544,5.73340042 L70.5814544,7.08540042 C71.5558544,5.95140042 72.9906544,5.37780042 74.8590544,5.37780042 Z M37.5808944,5.15464042 C41.8104944,5.15464042 43.9544944,6.97384042 43.9544944,10.5622404 L43.9544944,10.5622404 L43.9544944,20.4738404 L40.0376944,20.4738404 L40.0372944,18.7962404 C38.9988944,19.9110404 37.4464944,20.4754404 35.4092944,20.4754404 C33.9256944,20.4754404 32.7284944,20.0886404 31.8516944,19.3258404 C30.9620944,18.5522404 30.5104944,17.4534404 30.5104944,16.0594404 C30.5104944,15.2410404 30.6768944,14.5186404 31.0044944,13.9126404 C31.3312944,13.3062404 31.7772944,12.8170404 32.3288944,12.4582404 C32.8656944,12.1102404 33.5744944,11.8258404 34.4356944,11.6122404 C35.2800944,11.4038404 36.1528944,11.2570404 37.0292944,11.1758404 C37.8244944,11.1018404 38.7780944,11.0534404 39.8688944,11.0322404 L39.8688944,11.0322404 L39.8688944,10.7234404 C39.8688944,9.97544042 39.6696944,9.44984042 39.2604944,9.11584042 C38.8368944,8.77144042 38.1184944,8.59624042 37.1256944,8.59624042 C35.8652944,8.59624042 34.5504944,8.85984042 33.2168944,9.37944042 C33.1700944,9.39504042 33.1256944,9.40384042 33.0804944,9.41384042 L33.0804944,9.41384042 L32.0428944,6.22704042 C32.0440944,6.22464042 32.0444944,6.22304042 32.0456944,6.22024042 C33.6936944,5.51024042 35.5504944,5.15464042 37.5808944,5.15464042 Z M87.5605744,0.0508004202 L87.5605744,5.16360042 L90.5325744,5.16360042 L90.5329744,8.51200042 L87.5605744,8.50600042 L87.5605744,15.3584004 C87.5605744,16.2108004 87.7217744,16.5732004 87.8569744,16.7276004 C87.9849744,16.8744004 88.3029744,17.0484004 89.0909744,17.0484004 C89.1361744,17.0484004 89.2285744,17.0380004 89.8669744,16.9492004 L89.8669744,16.9492004 L90.9597744,19.8204004 C90.8505744,19.9596004 90.6797744,20.0868004 90.4077744,20.1684004 C89.7997744,20.3708004 89.0121744,20.4752004 88.0753744,20.4752004 C86.4305744,20.4752004 85.2245744,20.1032004 84.4913744,19.3696004 C83.7581744,18.6360004 83.3861744,17.4124004 83.3861744,15.7320004 L83.3861744,15.7320004 L83.3861744,8.51200042 L81.5265744,8.51200042 L81.5265744,5.16360042 L83.3853744,5.16360042 L83.3853744,0.0508004202 L87.5605744,0.0508004202 Z M98.3500544,5.15464042 C102.579254,5.15464042 104.723254,6.97384042 104.723254,10.5622404 L104.723254,10.5622404 L104.723254,20.4738404 L100.806454,20.4738404 L100.806054,18.7962404 C99.7676544,19.9110404 98.2156544,20.4754404 96.1784544,20.4754404 C94.6944544,20.4754404 93.4972544,20.0886404 92.6208544,19.3258404 C91.7308544,18.5522404 91.2796544,17.4534404 91.2796544,16.0594404 C91.2796544,15.2410404 91.4460544,14.5186404 91.7732544,13.9126404 C92.1000544,13.3062404 92.5460544,12.8170404 93.0980544,12.4582404 C93.6344544,12.1102404 94.3432544,11.8258404 95.2044544,11.6122404 C96.0488544,11.4038404 96.9216544,11.2570404 97.7980544,11.1758404 C98.5932544,11.1018404 99.5468544,11.0534404 100.637654,11.0322404 L100.637654,11.0322404 L100.637654,10.7234404 C100.637654,9.97544042 100.438854,9.44984042 100.029254,9.11584042 C99.6060544,8.77144042 98.8876544,8.59624042 97.8944544,8.59624042 C96.6340544,8.59624042 95.3192544,8.85984042 93.9856544,9.37944042 C93.9392544,9.39504042 93.8944544,9.40384042 93.8492544,9.41384042 L93.8492544,9.41384042 L92.8116544,6.22704042 C92.8128544,6.22464042 92.8132544,6.22304042 92.8144544,6.22024042 C94.4624544,5.51024042 96.3192544,5.15464042 98.3500544,5.15464042 Z M58.2734944,5.07328042 C60.4106944,5.07328042 62.0938944,5.72528042 63.2770944,7.01088042 C64.4526944,8.28968042 65.0490944,10.0076804 65.0490944,12.1168804 L65.0490944,12.1168804 L65.0490944,14.3876804 L55.3198944,14.3876804 C55.4954944,15.2156804 55.8838944,15.8648804 56.5002944,16.3648804 C57.1990944,16.9324804 58.1382944,17.2196804 59.2926944,17.2196804 C60.4710944,17.2196804 61.2714944,17.0980804 62.3310944,16.5676804 C62.3354944,16.5660804 62.3394944,16.5652804 62.3442944,16.5628804 L62.3442944,16.5628804 L63.1962944,16.1432804 L64.2770944,19.0716804 C64.0090944,19.2212804 63.7482944,19.3840804 63.4734944,19.5224804 C62.1018944,20.2152804 60.5250944,20.4916804 58.9974944,20.4744804 C56.5462944,20.4464804 54.6006944,19.7904804 53.2150944,18.4416804 C51.8266944,17.0904804 51.1226944,15.1880804 51.1226944,12.7872804 C51.1226944,10.3736804 51.7690944,8.46568042 53.0450944,7.11528042 C54.3250944,5.76008042 56.0846944,5.07328042 58.2734944,5.07328042 Z M49.6261344,0.0606004202 L49.6261344,20.4738004 L45.4521344,20.4738004 L45.4509344,0.0606004202 L49.6261344,0.0606004202 Z M39.8688944,13.7570404 C39.0204944,13.7914404 38.3076944,13.8362404 37.7452944,13.8906404 C37.1236944,13.9514404 36.5248944,14.0650404 35.9664944,14.2282404 C35.4472944,14.3802404 35.0692944,14.5914404 34.8428944,14.8554404 C34.6228944,15.1118404 34.5156944,15.4358404 34.5156944,15.8446404 C34.5156944,16.3234404 34.6800944,16.6918404 35.0184944,16.9706404 C35.3700944,17.2610404 35.8896944,17.4086404 36.5620944,17.4086404 C37.6540944,17.4086404 38.4888944,17.1438404 39.0424944,16.6226404 C39.5984944,16.0986404 39.8688944,15.4322404 39.8688944,14.5846404 L39.8688944,14.5846404 Z M100.637654,13.7570404 C99.7896544,13.7914404 99.0764544,13.8362404 98.5140544,13.8906404 C97.8924544,13.9514404 97.2936544,14.0650404 96.7352544,14.2282404 C96.2160544,14.3802404 95.8380544,14.5914404 95.6116544,14.8554404 C95.3916544,15.1118404 95.2848544,15.4358404 95.2848544,15.8446404 C95.2848544,16.3234404 95.4492544,16.6918404 95.7876544,16.9706404 C96.1392544,17.2610404 96.6584544,17.4086404 97.3308544,17.4086404 C98.4232544,17.4086404 99.2576544,17.1438404 99.8112544,16.6226404 C100.367254,16.0986404 100.637654,15.4322404 100.637654,14.5846404 L100.637654,14.5846404 Z M58.3270944,8.32728042 C56.4706944,8.32728042 55.4490944,9.36888042 55.2106944,11.5084804 L55.2106944,11.5084804 L61.2030944,11.5084804 C61.1802944,10.5184804 60.9310944,9.73648042 60.4610944,9.18208042 C59.9738944,8.60688042 59.2758944,8.32728042 58.3270944,8.32728042 Z" id="talenta" fill="#222222"></path>
                <path d="M79.7408144,23.4085204 L80.2872144,25.1093204 L80.5648144,26.0929204 L80.7928144,25.1093204 L81.2136144,23.4085204 L82.3968144,23.4085204 L81.2988144,26.7881204 C81.1536144,27.2425204 80.9876144,27.5889204 80.8000144,27.7553204 C80.6128144,27.9213204 80.2940144,28.0509204 79.8444144,28.0509204 C79.5168144,28.0509204 79.0928144,27.9741204 79.0928144,27.9741204 L79.0928144,27.1517204 C79.0928144,27.1517204 79.4512144,27.1941204 79.5356144,27.1941204 C79.6948144,27.1941204 79.8012144,27.1089204 79.8552144,27.0313204 C79.9088144,26.9545204 79.9100144,26.8185204 79.8584144,26.6965204 L78.5516144,23.4085204 L79.7408144,23.4085204 Z M91.5986944,23.3224004 C92.1422944,23.3224004 92.5702944,23.4880004 92.8710944,23.8152004 C93.1698944,24.1404004 93.3214944,24.5772004 93.3214944,25.1136004 L93.3214944,25.1136004 L93.3214944,25.6908004 L90.8474944,25.6908004 C90.8922944,25.9012004 90.9910944,26.0668004 91.1474944,26.1936004 C91.3254944,26.3380004 91.5642944,26.4112004 91.8578944,26.4112004 C92.1574944,26.4112004 92.3610944,26.3800004 92.6302944,26.2456004 C92.6314944,26.2448004 92.6326944,26.2448004 92.6338944,26.2440004 L92.6338944,26.2440004 L92.8502944,26.1372004 L93.1254944,26.8824004 C93.0570944,26.9200004 92.9906944,26.9616004 92.9210944,26.9968004 C92.5722944,27.1728004 92.1714944,27.2432004 91.7826944,27.2384004 C91.1594944,27.2316004 90.6646944,27.0648004 90.3122944,26.7216004 C89.9594944,26.3784004 89.7802944,25.8944004 89.7802944,25.2836004 C89.7802944,24.6700004 89.9446944,24.1848004 90.2690944,23.8416004 C90.5946944,23.4972004 91.0422944,23.3224004 91.5986944,23.3224004 Z M99.0007744,23.3225204 C100.075974,23.3225204 100.621574,23.7849204 100.621574,24.6973204 L100.621574,24.6973204 L100.621574,27.1569204 L99.6251744,27.1569204 L99.6251744,26.7913204 C99.3611744,27.0749204 98.9667744,27.2181204 98.4483744,27.2181204 C98.0711744,27.2181204 97.7667744,27.1197204 97.5439744,26.9261204 C97.3175744,26.7289204 97.2031744,26.4497204 97.2031744,26.0949204 C97.2031744,25.8873204 97.2451744,25.7037204 97.3283744,25.5493204 C97.4115744,25.3953204 97.5247744,25.2709204 97.6651744,25.1793204 C97.8015744,25.0913204 97.9819744,25.0185204 98.2011744,24.9645204 C98.4155744,24.9117204 98.6375744,24.8741204 98.8603744,24.8533204 C99.0623744,24.8345204 99.3051744,24.8225204 99.5823744,24.8169204 L99.5823744,24.8169204 L99.5823744,24.7385204 C99.5823744,24.5481204 99.5319744,24.4145204 99.4275744,24.3297204 C99.3203744,24.2421204 99.1375744,24.1973204 98.8847744,24.1973204 C98.5643744,24.1973204 98.2299744,24.2645204 97.8907744,24.3965204 C97.8791744,24.4005204 97.8679744,24.4029204 97.8563744,24.4053204 L97.8563744,24.4053204 L97.5923744,23.5953204 C97.5923744,23.5945204 97.5927744,23.5941204 97.5931744,23.5937204 C98.0123744,23.4125204 98.4843744,23.3225204 99.0007744,23.3225204 Z M75.9166544,22.0508404 L75.9166544,23.8304404 C76.0106544,23.6712404 76.1606544,23.5460404 76.3662544,23.4544404 C76.5726544,23.3632404 76.7906544,23.3176404 77.0198544,23.3176404 C77.5118544,23.3176404 77.8898544,23.4816404 78.1546544,23.8096404 C78.4190544,24.1372404 78.5514544,24.6244404 78.5514544,25.2704404 C78.5514544,25.9168404 78.4190544,26.4028404 78.1546544,26.7284404 C77.8898544,27.0536404 77.5118544,27.2164404 77.0198544,27.2164404 C76.7858544,27.2164404 76.5610544,27.1684404 76.3458544,27.0724404 C76.1298544,26.9768404 75.9730544,26.8444404 75.8750544,26.6756404 L75.8750544,27.1568404 L74.7718544,27.1568404 L74.7718544,22.0508404 L75.9166544,22.0508404 Z M88.1811344,23.3224404 C88.5855344,23.3224404 88.8951344,23.4468404 89.1011344,23.6916404 C89.3035344,23.9328404 89.4063344,24.2756404 89.4063344,24.7112404 L89.4063344,24.7112404 L89.4063344,27.1568404 L88.3467344,27.1568404 L88.3467344,24.8680404 C88.3467344,24.6556404 88.3067344,24.4968404 88.2271344,24.3956404 C88.1519344,24.2992404 88.0251344,24.2520404 87.8403344,24.2520404 C87.6339344,24.2520404 87.4759344,24.3144404 87.3563344,24.4416404 C87.2355344,24.5708404 87.1763344,24.7304404 87.1763344,24.9296404 L87.1763344,24.9296404 L87.1763344,27.1568404 L86.1243344,27.1568404 L86.1243344,24.8612404 C86.1243344,24.6528404 86.0847344,24.4960404 86.0075344,24.3948404 C85.9339344,24.2988404 85.8107344,24.2520404 85.6307344,24.2520404 C85.4159344,24.2520404 85.2535344,24.3164404 85.1343344,24.4476404 C85.0127344,24.5816404 84.9539344,24.7524404 84.9539344,24.9700404 L84.9539344,24.9700404 L84.9539344,27.1568404 L83.8931344,27.1568404 L83.8943344,23.4084404 L84.9327344,23.4084404 L84.9327344,23.7516404 C85.0123344,23.6608404 85.1119344,23.5780404 85.2311344,23.5048404 C85.4271344,23.3836404 85.6719344,23.3224404 85.9583344,23.3224404 C86.4631344,23.3224404 86.8151344,23.4988404 87.0071344,23.8472404 C87.2663344,23.4988404 87.6603344,23.3224404 88.1811344,23.3224404 Z M104.702854,23.4086004 L104.702854,27.1570004 L103.644054,27.1570004 L103.644054,23.4086004 L104.702854,23.4086004 Z M94.7558144,22.0508004 L94.7550144,24.4752004 L95.9026144,23.4088004 L97.2170144,23.4092004 L95.4062144,25.0920004 L97.2534144,27.1568004 L95.9590144,27.1568004 L94.7550144,25.8004004 L94.7550144,27.1568004 L93.6958144,27.1568004 L93.6958144,22.0508004 L94.7558144,22.0508004 Z M103.147976,23.3253643 L103.270054,23.3303604 L103.270054,24.4447604 C103.270054,24.4447604 103.061254,24.4283604 103.042454,24.4267604 C102.940454,24.4171604 102.837254,24.4127604 102.735654,24.4275604 C102.555254,24.4535604 102.402854,24.5495604 102.289254,24.6895604 C102.138054,24.8763604 102.061654,25.0995604 102.061654,25.3523604 L102.061654,25.3523604 L102.062054,27.1567604 L100.995654,27.1567604 L100.995654,23.4083604 L102.062054,23.4083604 L102.062054,23.8699604 C102.135654,23.7783604 102.224054,23.6915604 102.329254,23.6115604 C102.533654,23.4555604 102.956454,23.2931604 103.270054,23.3303604 Z M99.5823744,25.5101204 C99.3667744,25.5185204 99.1855744,25.5297204 99.0423744,25.5441204 C98.8843744,25.5593204 98.7323744,25.5881204 98.5903744,25.6297204 C98.4579744,25.6681204 98.3619744,25.7221204 98.3043744,25.7893204 C98.2483744,25.8545204 98.2215744,25.9369204 98.2215744,26.0409204 C98.2215744,26.1621204 98.2631744,26.2561204 98.3491744,26.3273204 C98.4387744,26.4009204 98.5707744,26.4385204 98.7415744,26.4385204 C99.0195744,26.4385204 99.2315744,26.3713204 99.3723744,26.2385204 C99.5135744,26.1053204 99.5823744,25.9357204 99.5823744,25.7201204 L99.5823744,25.7201204 Z M76.6546544,24.2100404 C76.1582544,24.2100404 75.9102544,24.5612404 75.9102544,25.2636404 C75.9102544,25.9708404 76.1582544,26.3244404 76.6546544,26.3244404 C76.9026544,26.3244404 77.0866544,26.2412404 77.2062544,26.0752404 C77.3254544,25.9088404 77.3850544,25.6404404 77.3850544,25.2704404 C77.3850544,24.8960404 77.3254544,24.6256404 77.2062544,24.4592404 C77.0866544,24.2932404 76.9026544,24.2100404 76.6546544,24.2100404 Z M91.6122944,24.1500004 C91.1402944,24.1500004 90.8802944,24.4148004 90.8198944,24.9588004 L90.8198944,24.9588004 L92.3438944,24.9588004 C92.3378944,24.7068004 92.2746944,24.5080004 92.1550944,24.3672004 C92.0310944,24.2208004 91.8534944,24.1500004 91.6122944,24.1500004 Z M104.703254,22.0510004 L104.703254,23.1458004 L103.644454,23.1458004 L103.644454,22.0510004 L104.703254,22.0510004 Z" id="by-mekari" fill="#777777"></path>
            </g>
        </g>
    </g>
</svg>